<svg width="24" height="24" viewBox="0 0 24 24" xmlns="http://www.w3.org/2000/svg">
  <path d="M12 2C12.55 2 13 2.45 13 3V5C13 5.55 12.55 6 12 6C11.45 6 11 5.55 11 5V3C11 2.45 11.45 2 12 2ZM12 18C12.55 18 13 18.45 13 19V21C13 21.55 12.55 22 12 22C11.45 22 11 21.55 11 21V19C11 18.45 11.45 18 12 18ZM22 12C22 12.55 21.55 13 21 13H19C18.45 13 18 12.55 18 12C18 11.45 18.45 11 19 11H21C21.55 11 22 11.45 22 12ZM6 12C6 12.55 5.55 13 5 13H3C2.45 13 2 12.55 2 12C2 11.45 2.45 11 3 11H5C5.55 11 6 11.45 6 12ZM18.36 4.22C18.75 4.61 18.75 5.24 18.36 5.63L16.95 7.05C16.56 7.44 15.92 7.44 15.54 7.05C15.15 6.66 15.15 6.03 15.54 5.64L16.95 4.22C17.34 3.83 17.97 3.83 18.36 4.22ZM8.46 16.95C8.85 17.34 8.85 17.97 8.46 18.36L7.05 19.78C6.66 20.17 6.03 20.17 5.64 19.78C5.25 19.39 5.25 18.76 5.64 18.37L7.05 16.95C7.44 16.56 8.07 16.56 8.46 16.95ZM19.78 18.36C20.17 18.75 20.17 19.38 19.78 19.77C19.39 20.16 18.76 20.16 18.37 19.77L16.95 18.36C16.56 17.97 16.56 17.34 16.95 16.95C17.34 16.56 17.97 16.56 18.36 16.95L19.78 18.36ZM7.05 7.05C6.66 7.44 6.03 7.44 5.64 7.05L4.22 5.64C3.83 5.25 3.83 4.62 4.22 4.23C4.61 3.84 5.24 3.84 5.63 4.23L7.05 5.64C7.44 6.03 7.44 6.66 7.05 7.05ZM12 8C9.79 8 8 9.79 8 12C8 14.21 9.79 16 12 16C14.21 16 16 14.21 16 12C16 9.79 14.21 8 12 8Z" fill="#FFFFFF"/>
</svg>
