<svg width="24" height="24" viewBox="0 0 24 24" fill="none" xmlns="http://www.w3.org/2000/svg">
  <path d="M12 6.25C11.3096 6.25 10.75 6.8096 10.75 7.5C10.75 8.1904 11.3096 8.75 12 8.75C12.6904 8.75 13.25 8.1904 13.25 7.5C13.25 6.8096 12.6904 6.25 12 6.25Z" fill="#FFFFFF"/>
  <path d="M9.75 15.5C9.75 14.2574 10.7574 13.25 12 13.25C13.2426 13.25 14.25 14.2574 14.25 15.5C14.25 16.7426 13.2426 17.75 12 17.75C10.7574 17.75 9.75 16.7426 9.75 15.5Z" fill="#FFFFFF"/>
  <path fill-rule="evenodd" clip-rule="evenodd" d="M4 10C4 6.2288 4 4.3431 5.1716 3.1716C6.3431 2 8.2288 2 12 2C15.7712 2 17.6569 2 18.8284 3.1716C20 4.3431 20 6.2288 20 10V14C20 17.7712 20 19.6569 18.8284 20.8284C17.6569 22 15.7712 22 12 22C8.2288 22 6.3431 22 5.1716 20.8284C4 19.6569 4 17.7712 4 14V10ZM9.25 7.5C9.25 5.9812 10.4812 4.75 12 4.75C13.5188 4.75 14.75 5.9812 14.75 7.5C14.75 9.0188 13.5188 10.25 12 10.25C10.4812 10.25 9.25 9.0188 9.25 7.5ZM12 11.75C9.9289 11.75 8.25 13.4289 8.25 15.5C8.25 17.5711 9.9289 19.25 12 19.25C14.0711 19.25 15.75 17.5711 15.75 15.5C15.75 13.4289 14.0711 11.75 12 11.75Z" fill="#FFFFFF"/>
</svg>
