<svg width="24" height="24" viewBox="0 0 24 24" xmlns="http://www.w3.org/2000/svg">
  <path d="M19 3C20.5977 3 21.9037 4.2489 21.9949 5.8237L22 6V18C22 19.5977 20.7511 20.9037 19.1763 20.9949L19 21H5C3.4023 21 2.0963 19.7511 2.0051 18.1763L2 18V6C2 4.4023 3.2489 3.0963 4.8237 3.0051L5 3H19ZM19 5H5C4.4872 5 4.0645 5.386 4.0067 5.8834L4 6V18C4 18.5128 4.386 18.9355 4.8834 18.9933L5 19H19C19.5128 19 19.9355 18.614 19.9933 18.1166L20 18V6C20 5.4872 19.614 5.0645 19.1166 5.0067L19 5ZM17 12C17.5128 12 17.9355 12.386 17.9933 12.8834L18 13V16C18 16.5128 17.614 16.9355 17.1166 16.9933L17 17H14C13.4477 17 13 16.5523 13 16C13 15.4872 13.386 15.0645 13.8834 15.0067L14 15H16V13C16 12.4477 16.4477 12 17 12ZM10 7C10.5523 7 11 7.4477 11 8C11 8.5128 10.614 8.9355 10.1166 8.9933L10 9H8V11C8 11.5523 7.5523 12 7 12C6.4872 12 6.0645 11.614 6.0067 11.1166L6 11V8C6 7.4872 6.386 7.0645 6.8834 7.0067L7 7H10Z" fill="#FFFFFF"/>
</svg>
